<svg xmlns="http://www.w3.org/2000/svg" width="56" height="72" viewBox="0 0 56 72"><ellipse cx="28" cy="66" rx="17" ry="5" fill="#284f3c" opacity=".28"/><rect x="16" y="50" width="10" height="14" rx="3" fill="#374d67"/><rect x="30" y="50" width="10" height="14" rx="3" fill="#374d67"/><rect x="13" y="61" width="14" height="7" rx="3" fill="#f0eee5"/><rect x="29" y="61" width="14" height="7" rx="3" fill="#f0eee5"/><rect x="10" y="31" width="8" height="20" rx="4" fill="#d1833d"/><rect x="38" y="31" width="8" height="20" rx="4" fill="#d1833d"/><path d="M14 31 Q28 24 42 31 L39 53 Q28 59 17 53Z" fill="#4b7898" stroke="#294b63" stroke-width="2"/><path d="M19 32 H37 L34 47 H22Z" fill="#f2e8cd"/><path d="M26 30 H30 V51 H26Z" fill="#d66a55"/><rect x="23" y="24" width="10" height="9" rx="4" fill="#e8b08a"/><rect x="16" y="9" width="24" height="22" rx="9" fill="#e8b08a" stroke="#9b674f" stroke-width="2"/><path d="M17 16 Q18 6 28 6 Q39 6 40 17 L35 13 L31 17 L26 12 L21 16Z" fill="#5a4038"/><path d="M12 10 Q17 2 29 2 Q40 2 44 10 L38 13 H17Z" fill="#d85f4f" stroke="#8f3c39" stroke-width="2"/><path d="M28 3 V12 H43" fill="none" stroke="#f4d9c7" stroke-width="3"/><rect x="21" y="19" width="3" height="4" rx="1" fill="#263c45"/><rect x="32" y="19" width="3" height="4" rx="1" fill="#263c45"/><path d="M25 27 Q28 29 31 27" fill="none" stroke="#9d5e58" stroke-width="2" stroke-linecap="round"/></svg>